<?xml version="1.0" encoding="utf-8"?>
<!-- Generator: Adobe Illustrator 14.0.0, SVG Export Plug-In . SVG Version: 6.00 Build 43363)  -->
<!DOCTYPE svg PUBLIC "-//W3C//DTD SVG 1.1//EN" "http://www.w3.org/Graphics/SVG/1.1/DTD/svg11.dtd">
<svg version="1.1" id="Layer_2" xmlns="http://www.w3.org/2000/svg" xmlns:xlink="http://www.w3.org/1999/xlink" x="0px" y="0px"
	 width="305px" height="865px" viewBox="0 0 305 865" enable-background="new 0 0 305 865" xml:space="preserve">
<g>
	<path fill="#8E7841" d="M253.106,160.007c0-1.371-0.313-3.199-3.067-3.199c0.241-14.681-1.081-26.332-4.279-29.53
		c-2.262-2.261-7.585-3.787-15.011-4.757L109.937,33.827c0.168-0.577,0.252-1.202,0.252-1.839c0-3.824-3.09-6.914-6.914-6.914
		c-3.824,0-6.914,3.09-6.914,6.914s3.09,6.914,6.914,6.914c1.058,0,2.068-0.241,2.97-0.673l106.407,83.02
		c-3.521-0.102-7.223-0.15-11.069-0.15c-26.729,0.012-60.288,2.272-86.284,4.076c-47.495,3.307-74.813,6.253-77.254,13.227
		c-0.529,1.511-0.924,3.517-0.93,6.221c-0.016,8.053,3.435,22.308,17.162,48.188c18.336,34.568,34.87,44.789,41.783,47.193
		c1.461,0.509,4.466,0.909,8.417,1.225v4.087c0,0.664,0.538,1.202,1.202,1.202h116.232c0.665,0,1.203-0.538,1.203-1.202v-3.525
		c2.465-0.379,4.574-0.863,6.208-1.485c8.116-3.077,14.392-24.986,17.831-48.769c2.453,0,3.174-1.455,3.174-3.247
		s0.47-3.691-2.26-3.691c0.276-2.32,0.529-4.642,0.745-6.95c2.333,0,3.029-1.875,3.029-3.475s-0.204-3.475-2.439-3.475h-0.013
		c0.181-2.356,0.313-4.678,0.421-6.95C253.455,163.746,253.106,161.365,253.106,160.007z"/>
	<g>
		<path fill="#F2C2A4" d="M253.106,160.007c0-1.371-0.313-3.199-3.067-3.199c0.241-14.681-1.081-26.332-4.279-29.53
			c-4.629-4.629-22.063-6.18-44.177-6.18c-26.729,0.012-60.288,2.272-86.284,4.076c-47.495,3.307-74.813,6.253-77.254,13.227
			c-0.529,1.511-0.924,3.517-0.93,6.221c-0.016,8.053,3.435,22.308,17.162,48.188c18.336,34.568,34.87,44.789,41.783,47.193
			c1.461,0.509,4.466,0.909,8.417,1.225v4.087c0,0.664,0.538,1.202,1.202,1.202h116.232c0.665,0,1.203-0.538,1.203-1.202v-3.525
			c2.465-0.379,4.574-0.863,6.208-1.485c8.116-3.077,14.392-24.986,17.831-48.769c2.453,0,3.174-1.455,3.174-3.247
			s0.47-3.691-2.26-3.691c0.276-2.32,0.529-4.642,0.745-6.95c2.333,0,3.029-1.875,3.029-3.475s-0.204-3.475-2.439-3.475h-0.013
			c0.181-2.356,0.313-4.678,0.421-6.95C253.455,163.746,253.106,161.365,253.106,160.007z M102.031,147.985
			c4.832-3.327,10.778-5.077,17.08-5.077c6.512,0,12.564,1.988,17.568,5.403c1.548,1.548-0.397,1.548-0.397,1.548H102.32
			C102.32,149.859,99.309,149.859,102.031,147.985z M93.115,156.808h51.992c1.442,2.141,2.608,4.474,3.474,6.938h-58.94
			C90.506,161.281,91.672,158.948,93.115,156.808z M87.849,174.171c0-1.179,0.061-2.333,0.192-3.475h62.14
			c0.133,1.142,0.192,2.296,0.192,3.475s-0.06,2.333-0.192,3.475h-62.14C87.909,176.504,87.849,175.35,87.849,174.171z
			 M93.115,191.534c-1.443-2.141-2.609-4.474-3.475-6.938h58.94c-0.865,2.465-2.031,4.798-3.474,6.938H93.115z M102.56,198.483
			h32.88c0,0,3.854,0.038,1.05,1.676c-5.167,3.017-10.948,5.274-17.379,5.274c-6.45,0-12.45-1.95-17.425-5.306
			C99.429,198.884,102.56,198.483,102.56,198.483z"/>
		<path fill="none" stroke="#EA987B" stroke-width="0.5" stroke-linecap="round" stroke-linejoin="round" d="M89.944,149.859H47.262
			 M85.338,156.808H48.981 M51.365,163.746h31.229 M54.116,170.696H81.3 M57.387,177.646h23.914 M60.841,184.596h21.752
			 M85.336,191.534h-20.81 M68.552,198.483h21.394 M95.58,218.507c0.621-1.359,1.479-2.587,2.518-3.622
			c2.237-2.243,5.366-3.642,8.786-3.639c3.419-0.003,6.548,1.396,8.785,3.639c0.521,0.518,0.994,1.085,1.415,1.692 M141.833,216.579
			c-0.421-0.608-0.896-1.176-1.416-1.694c-2.237-2.243-5.366-3.642-8.785-3.639c-3.419-0.003-6.549,1.396-8.786,3.639
			c-0.47,0.469-0.902,0.977-1.292,1.52 M167.684,218.505c-0.621-1.357-1.479-2.585-2.517-3.62c-2.236-2.243-5.366-3.642-8.785-3.639
			c-3.419-0.003-6.549,1.396-8.785,3.639c-0.47,0.469-0.902,0.977-1.292,1.52"/>
	</g>
	<path fill="#C5A45C" d="M196.262,131.886c-23.353,0-42.285,18.932-42.285,42.285s18.933,42.285,42.285,42.285
		s42.284-18.933,42.284-42.285S219.614,131.886,196.262,131.886z M196.262,196.616c-12.396,0-22.445-10.049-22.445-22.445
		s10.049-22.445,22.445-22.445s22.445,10.049,22.445,22.445S208.658,196.616,196.262,196.616z"/>
	<path fill="#FEEADF" d="M200.369,164.72l-4.112-16.568l-4.101,16.557c-3.644,1.588-6.204,5.231-6.204,9.463
		c0,4.232,2.561,7.876,6.204,9.463l4.101,16.557l4.112-16.568c3.644-1.587,6.192-5.219,6.192-9.451
		C206.562,169.939,204.013,166.308,200.369,164.72z"/>
	<circle fill="#8E7841" cx="196.262" cy="174.171" r="10.821"/>
	<path fill="#8E7841" d="M196.262,141.105c-18.262,0-33.066,14.804-33.066,33.066s14.805,33.066,33.066,33.066
		s33.065-14.805,33.065-33.066S214.523,141.105,196.262,141.105z M196.262,202.027c-15.385,0-27.856-12.472-27.856-27.856
		s12.472-27.855,27.856-27.855s27.855,12.471,27.855,27.855S211.646,202.027,196.262,202.027z"/>
	<path fill="#FEEADF" d="M115.7,223.67c0,4.87-3.948,8.817-8.817,8.817c-4.87,0-8.817-3.947-8.817-8.817
		c0-4.869,3.948-8.817,8.817-8.817C111.752,214.853,115.7,218.801,115.7,223.67z M156.382,214.853c-4.869,0-8.817,3.948-8.817,8.817
		c0,4.87,3.948,8.817,8.817,8.817s8.817-3.947,8.817-8.817C165.199,218.801,161.251,214.853,156.382,214.853z M140.449,223.67
		c0,4.87-3.948,8.817-8.817,8.817c-4.87,0-8.817-3.947-8.817-8.817c0-4.869,3.948-8.817,8.817-8.817
		C136.501,214.853,140.449,218.801,140.449,223.67z"/>
	<path fill="none" stroke="#F4CDB4" stroke-linecap="round" stroke-linejoin="round" d="M253.106,160.007
		c0-1.371-0.313-3.199-3.067-3.199c0.241-14.681-1.081-26.332-4.279-29.53c-4.629-4.629-22.063-6.18-44.177-6.18
		c-26.729,0.012-60.288,2.272-86.284,4.076c-47.495,3.307-74.813,6.253-77.254,13.227c-0.529,1.511-0.924,3.517-0.93,6.221
		c-0.016,8.053,3.435,22.308,17.162,48.188c18.336,34.568,34.87,44.789,41.783,47.193c1.461,0.509,4.466,0.909,8.417,1.225v4.087
		c0,0.664,0.538,1.202,1.202,1.202h116.232c0.665,0,1.203-0.538,1.203-1.202v-3.525c2.465-0.379,4.574-0.863,6.208-1.485
		c8.116-3.077,14.392-24.986,17.831-48.769c2.453,0,3.174-1.455,3.174-3.247s0.47-3.691-2.26-3.691
		c0.276-2.32,0.529-4.642,0.745-6.95c2.333,0,3.029-1.875,3.029-3.475s-0.204-3.475-2.439-3.475h-0.013
		c0.181-2.356,0.313-4.678,0.421-6.95C253.455,163.746,253.106,161.365,253.106,160.007z"/>
</g>
</svg>
