<?xml version="1.0" encoding="utf-8"?>
<!-- Generator: Adobe Illustrator 14.0.0, SVG Export Plug-In . SVG Version: 6.00 Build 43363)  -->
<!DOCTYPE svg PUBLIC "-//W3C//DTD SVG 1.1//EN" "http://www.w3.org/Graphics/SVG/1.1/DTD/svg11.dtd">
<svg version="1.1" id="Layer_2" xmlns="http://www.w3.org/2000/svg" xmlns:xlink="http://www.w3.org/1999/xlink" x="0px" y="0px"
	 width="4320px" height="4320px" viewBox="0 0 4320 4320" enable-background="new 0 0 4320 4320" xml:space="preserve">
<path fill="#393122" d="M453.643,2089.314c-0.566,0.645-1.117,1.303-1.653,1.975c14.614,15.547,45.958,24.17,60.54,25.291
	c0.21-2.214,0.303-4.441,0.28-6.661c-0.165-15.97-6.304-31.592-17.641-39.421C458.156,2051.15,405.581,2044,384.129,2044
	c-21.451,0-74.026,7.15-111.04,26.498c-11.337,7.829-17.477,23.453-17.641,39.424c-0.022,2.219,0.07,4.445,0.28,6.658
	c14.583-1.121,45.926-9.744,60.54-25.291c-0.537-0.672-1.087-1.33-1.653-1.975c-0.027-0.03-0.054-0.06-0.08-0.093
	c-2.478-2.942-4.051-17.23,11.76-15.358c1.844,0.219,3.777,0.438,5.783,0.651c1.075,15.405-10.439,68.936-16.93,86.414
	c-5.468,14.73-14.092,22.655-34.182,29.551c-2.379,0.816-1.42,3.371,1.689,3.812c35.405,5.012,70.927,6.788,101.473,6.788
	s66.066-1.776,101.472-6.788c3.109-0.439,4.068-2.995,1.689-3.812c-20.09-6.896-28.714-14.82-34.182-29.551
	c-6.49-17.479-18.004-71.009-16.929-86.414c2.006-0.214,3.939-0.433,5.783-0.651c15.811-1.872,14.237,12.416,11.76,15.358
	C453.698,2089.255,453.67,2089.284,453.643,2089.314z M384.129,2077.648c11.567,0,24.439-0.691,36.343-1.657
	c0.085,4.474-0.61,11.272-1.792,19.168c-9.457-6.368-21.468-10.188-34.55-10.188s-25.093,3.819-34.55,10.188
	c-1.183-7.896-1.878-14.694-1.792-19.168C359.69,2076.957,372.563,2077.648,384.129,2077.648z M363.786,1996.832
	c-5.218,0.492-7.979-3.966-8.747-6.984c-0.766-3.018,3.428-3.222,4.04-1.116c2.149,5.789,8.132,4.492,10.433,2.189
	c1.579-1.578,3.591-2.627,5.404-2.009c0.719,0.246,1.77-0.161,1.594-1.026c-4.03-19.914-24.809-35.081-49.837-35.081
	c-27.916,0-50.544,18.868-50.544,42.147c0,23.276,22.628,42.145,50.544,42.145c25.598,0,46.75-15.865,50.086-36.445
	C375.412,1995.654,369.001,1996.341,363.786,1996.832z M345.052,1961.759c4.404,0,7.975,2.976,7.975,6.647s-3.571,6.648-7.975,6.648
	s-7.973-2.977-7.973-6.648S340.648,1961.759,345.052,1961.759z M346.996,1994.952c0,9.356-9.098,16.943-20.322,16.943
	c-11.224,0-20.321-7.587-20.321-16.943c0-9.359,9.098-16.946,20.321-16.946C337.898,1978.005,346.996,1985.592,346.996,1994.952z
	 M326.674,1957.652c4.404,0,7.973,2.976,7.973,6.647s-3.569,6.65-7.973,6.65s-7.973-2.979-7.973-6.65
	S322.27,1957.652,326.674,1957.652z M308.295,1961.759c4.404,0,7.973,2.976,7.973,6.647s-3.569,6.648-7.973,6.648
	s-7.975-2.977-7.975-6.648S303.892,1961.759,308.295,1961.759z M294.84,1972.977c4.404,0,7.975,2.976,7.975,6.647
	s-3.571,6.649-7.975,6.649s-7.973-2.978-7.973-6.649S290.437,1972.977,294.84,1972.977z M281.942,1994.952
	c0-3.672,3.571-6.65,7.975-6.65c4.401,0,7.972,2.979,7.972,6.65s-3.571,6.647-7.972,6.647
	C285.513,2001.599,281.942,1998.624,281.942,1994.952z M286.868,2010.116c0-3.672,3.569-6.649,7.973-6.649s7.975,2.978,7.975,6.649
	s-3.571,6.648-7.975,6.648S286.868,2013.788,286.868,2010.116z M308.228,2027.982c-4.403,0-7.972-2.979-7.972-6.65
	s3.569-6.647,7.972-6.647c4.404,0,7.973,2.976,7.973,6.647S312.632,2027.982,308.228,2027.982z M326.674,2032.249
	c-4.404,0-7.973-2.976-7.973-6.647s3.569-6.649,7.973-6.649s7.973,2.978,7.973,6.649S331.078,2032.249,326.674,2032.249z
	 M345.122,2027.982c-4.404,0-7.973-2.979-7.973-6.65s3.569-6.647,7.973-6.647s7.973,2.976,7.973,6.647
	S349.525,2027.982,345.122,2027.982z M358.537,2016.764c-4.404,0-7.973-2.977-7.973-6.648s3.569-6.649,7.973-6.649
	s7.975,2.978,7.975,6.649S362.941,2016.764,358.537,2016.764z M543.445,2099.469h-0.007v-0.007h0.007V2099.469z"/>
</svg>
